<?xml version="1.0" encoding="UTF-8" standalone="no"?>
<!-- Created with Inkscape (http://www.inkscape.org/) -->

<svg
   xmlns:dc="http://purl.org/dc/elements/1.1/"
   xmlns:cc="http://creativecommons.org/ns#"
   xmlns:rdf="http://www.w3.org/1999/02/22-rdf-syntax-ns#"
   xmlns:svg="http://www.w3.org/2000/svg"
   xmlns="http://www.w3.org/2000/svg"
   xmlns:sodipodi="http://sodipodi.sourceforge.net/DTD/sodipodi-0.dtd"
   xmlns:inkscape="http://www.inkscape.org/namespaces/inkscape"
   version="1.1"
   id="svg1975"
   xml:space="preserve"
   width="666.66669"
   height="666.66669"
   viewBox="0 0 666.66669 666.66669"
   sodipodi:docname="wifi_area.svg"
   inkscape:version="0.92.2 5c3e80d, 2017-08-06"><metadata
     id="metadata1981"><rdf:RDF><cc:Work
         rdf:about=""><dc:format>image/svg+xml</dc:format><dc:type
           rdf:resource="http://purl.org/dc/dcmitype/StillImage" /><dc:title></dc:title></cc:Work></rdf:RDF></metadata><defs
     id="defs1979"><clipPath
       clipPathUnits="userSpaceOnUse"
       id="clipPath1993"><path
         d="M 0,500 H 500 V 0 H 0 Z"
         id="path1991"
         inkscape:connector-curvature="0" /></clipPath><clipPath
       clipPathUnits="userSpaceOnUse"
       id="clipPath2001"><path
         d="M 56.1836,66.0957 H 443.816 V 37.0352 H 56.1836 Z"
         id="path1999"
         inkscape:connector-curvature="0" /></clipPath><clipPath
       clipPathUnits="userSpaceOnUse"
       id="clipPath2887"><path
         d="M 0,500 H 500 V 0 H 0 Z"
         id="path2885"
         inkscape:connector-curvature="0" /></clipPath></defs><sodipodi:namedview
     pagecolor="#ffffff"
     bordercolor="#666666"
     borderopacity="1"
     objecttolerance="10"
     gridtolerance="10"
     guidetolerance="10"
     inkscape:pageopacity="0"
     inkscape:pageshadow="2"
     inkscape:window-width="1440"
     inkscape:window-height="851"
     id="namedview1977"
     showgrid="false"
     inkscape:zoom="1.0012632"
     inkscape:cx="287.86978"
     inkscape:cy="219.46946"
     inkscape:window-x="0"
     inkscape:window-y="1"
     inkscape:window-maximized="1"
     inkscape:current-layer="g1983" /><g
     id="g1983"
     inkscape:groupmode="layer"
     inkscape:label="2457359"
     transform="matrix(1.3333333,0,0,-1.3333333,0,666.66667)"><g
       id="g5655"
       transform="translate(2.5678474,-6.2632981)"><g
         id="g1995"><g
           id="g1997" /><g
           id="g2009"><g
             style="opacity:0.39999402"
             id="g2007"
             clip-path="url(#clipPath2001)"><g
               id="g2005"
               transform="translate(443.8164,51.5654)"><path
                 inkscape:connector-curvature="0"
                 id="path2003"
                 style="fill:#0849b1;fill-opacity:1;fill-rule:nonzero;stroke:none"
                 d="m 0,0 c 0,-8.024 -86.774,-14.53 -193.816,-14.53 -107.042,0 -193.817,6.506 -193.817,14.53 0,8.025 86.775,14.53 193.817,14.53 C -86.774,14.53 0,8.025 0,0" /></g></g></g></g><g
         transform="translate(255.3281,47.3818)"
         id="g2043"><path
           inkscape:connector-curvature="0"
           id="path2045"
           style="fill:#001056;fill-opacity:1;fill-rule:nonzero;stroke:none"
           d="m 0,0 -17.403,0.773 c -2.443,0.109 -4.368,2.122 -4.368,4.567 0,2.309 1.724,4.256 4.016,4.536 l 17.292,2.113 C 3.125,12.428 6.288,9.629 6.288,6.014 6.288,2.585 3.427,-0.152 0,0" /></g><g
         transform="translate(261.7715,55.4229)"
         id="g2047"><path
           inkscape:connector-curvature="0"
           id="path2049"
           style="fill:#001056;fill-opacity:1;fill-rule:nonzero;stroke:none"
           d="m 0,0 c 0,-3.357 -2.722,-6.079 -6.079,-6.079 -3.358,0 -6.079,2.722 -6.079,6.079 0,3.357 2.721,6.079 6.079,6.079 C -2.722,6.079 0,3.357 0,0" /></g><g
         transform="translate(246.2617,52.1494)"
         id="g2051"><path
           inkscape:connector-curvature="0"
           id="path2053"
           style="fill:#3da2ff;fill-opacity:1;fill-rule:nonzero;stroke:none"
           d="m 0,0 v 0 c -0.388,0 -0.701,0.313 -0.701,0.701 v 3.741 c 0,0.388 0.313,0.702 0.701,0.702 0.388,0 0.701,-0.314 0.701,-0.702 V 0.701 C 0.701,0.313 0.388,0 0,0" /></g><g
         transform="translate(242.6768,52.1494)"
         id="g2055"><path
           inkscape:connector-curvature="0"
           id="path2057"
           style="fill:#3da2ff;fill-opacity:1;fill-rule:nonzero;stroke:none"
           d="m 0,0 v 0 c -0.388,0 -0.702,0.313 -0.702,0.701 v 3.741 c 0,0.388 0.314,0.702 0.702,0.702 0.388,0 0.701,-0.314 0.701,-0.702 V 0.701 C 0.701,0.313 0.388,0 0,0" /></g><g
         transform="translate(255.4268,60.1201)"
         id="g2059"><path
           inkscape:connector-curvature="0"
           id="path2061"
           style="fill:#fefdfe;fill-opacity:1;fill-rule:nonzero;stroke:none"
           d="m 0,0 24.095,11.162 c 2.235,1.012 4.867,0.02 5.879,-2.216 V 8.945 C 30.985,6.71 29.993,4.078 27.758,3.066 L 3.663,-8.096 C 1.427,-9.107 -1.205,-8.115 -2.217,-5.88 -3.228,-3.645 -2.235,-1.012 0,0" /></g><g
         transform="translate(266.1924,68.417)"
         id="g2063"><path
           inkscape:connector-curvature="0"
           id="path2065"
           style="fill:#eaab35;fill-opacity:1;fill-rule:nonzero;stroke:none"
           d="m 0,0 33.632,15.435 c 3.713,1.679 8.084,0.031 9.764,-3.681 1.68,-3.713 0.032,-8.084 -3.68,-9.764 L 6.083,-13.444 c -3.712,-1.68 -8.084,-0.033 -9.764,3.68 C -5.36,-6.051 -3.713,-1.68 0,0" /></g><g
         transform="translate(289.4668,47.1484)"
         id="g2067"><path
           inkscape:connector-curvature="0"
           id="path2069"
           style="fill:#001056;fill-opacity:1;fill-rule:nonzero;stroke:none"
           d="m 0,0 17.403,0.773 c 2.444,0.109 4.368,2.121 4.368,4.566 0,2.309 -1.723,4.257 -4.016,4.537 L 0.463,11.989 C -3.125,12.428 -6.287,9.628 -6.287,6.014 -6.287,2.584 -3.427,-0.152 0,0" /></g><g
         transform="translate(283.0234,55.1885)"
         id="g2071"><path
           inkscape:connector-curvature="0"
           id="path2073"
           style="fill:#001056;fill-opacity:1;fill-rule:nonzero;stroke:none"
           d="m 0,0 c 0,-3.357 2.722,-6.079 6.079,-6.079 3.358,0 6.079,2.722 6.079,6.079 0,3.358 -2.721,6.08 -6.079,6.08 C 2.722,6.08 0,3.358 0,0" /></g><g
         transform="translate(298.5332,51.915)"
         id="g2075"><path
           inkscape:connector-curvature="0"
           id="path2077"
           style="fill:#3da2ff;fill-opacity:1;fill-rule:nonzero;stroke:none"
           d="M 0,0 V 0 C 0.388,0 0.702,0.314 0.702,0.702 V 4.443 C 0.702,4.83 0.388,5.145 0,5.145 -0.387,5.145 -0.701,4.83 -0.701,4.443 V 0.702 C -0.701,0.314 -0.387,0 0,0" /></g><g
         transform="translate(302.1191,51.915)"
         id="g2079"><path
           inkscape:connector-curvature="0"
           id="path2081"
           style="fill:#3da2ff;fill-opacity:1;fill-rule:nonzero;stroke:none"
           d="M 0,0 V 0 C 0.387,0 0.701,0.314 0.701,0.702 V 4.443 C 0.701,4.83 0.387,5.145 0,5.145 -0.388,5.145 -0.702,4.83 -0.702,4.443 V 0.702 C -0.702,0.314 -0.388,0 0,0" /></g><g
         transform="translate(285.9717,51.6846)"
         id="g2083"><path
           inkscape:connector-curvature="0"
           id="path2085"
           style="fill:#fefdfe;fill-opacity:1;fill-rule:nonzero;stroke:none"
           d="m 0,0 -24.931,9.145 c -2.296,0.865 -3.455,3.427 -2.59,5.723 0.866,2.296 3.428,3.456 5.725,2.591 L 3.135,8.313 C 5.431,7.448 6.59,4.886 5.725,2.59 4.858,0.294 2.296,-0.866 0,0" /></g><g
         transform="translate(272.4922,53.4297)"
         id="g2087"><path
           inkscape:connector-curvature="0"
           id="path2089"
           style="fill:#facb53;fill-opacity:1;fill-rule:nonzero;stroke:none"
           d="m 0,0 -34.695,12.868 c -3.813,1.438 -5.739,5.694 -4.302,9.506 v 0.001 c 1.437,3.812 5.694,5.738 9.507,4.301 L 5.205,13.808 C 9.018,12.37 10.943,8.114 9.506,4.302 V 4.301 C 8.069,0.488 3.813,-1.437 0,0" /></g><g
         transform="translate(246.668,102.1475)"
         id="g2091"><path
           inkscape:connector-curvature="0"
           id="path2093"
           style="fill:#3da2ff;fill-opacity:1;fill-rule:nonzero;stroke:none"
           d="m 0,0 v 0 c -2.224,1.874 -2.507,5.195 -0.633,7.419 l 9.361,11.839 c 1.649,1.958 4.575,2.207 6.532,0.557 l 0.963,-0.811 c 1.957,-1.65 2.207,-4.575 0.556,-6.532 L 7.42,0.632 C 5.545,-1.591 2.224,-1.874 0,0" /></g><g
         transform="translate(240.7012,95.0439)"
         id="g2095"><path
           inkscape:connector-curvature="0"
           id="path2097"
           style="fill:#f9b48d;fill-opacity:1;fill-rule:nonzero;stroke:none"
           d="m 0,0 v 0 c -1.729,1.458 -1.949,4.041 -0.491,5.771 l 5.607,6.894 c 1.283,1.523 3.558,1.717 5.08,0.434 l 0.749,-0.631 c 1.523,-1.284 1.717,-3.559 0.433,-5.081 L 5.771,0.492 C 4.313,-1.237 1.729,-1.458 0,0" /></g><g
         transform="translate(240.3809,101.1104)"
         id="g2099"><path
           inkscape:connector-curvature="0"
           id="path2101"
           style="fill:#f9b48d;fill-opacity:1;fill-rule:nonzero;stroke:none"
           d="m 0,0 v 0 c -1.604,-1.512 -1.688,-4.033 -0.189,-5.648 l 12.97,-13.98 c 1.521,-1.612 4.061,-1.687 5.673,-0.167 1.612,1.521 1.688,4.061 0.167,5.673 L 5.693,-0.19 C 4.178,1.443 1.621,1.529 0,0" /></g><g
         transform="translate(251.9697,86.2734)"
         id="g2103"><path
           inkscape:connector-curvature="0"
           id="path2105"
           style="fill:#f9b48d;fill-opacity:1;fill-rule:nonzero;stroke:none"
           d="m 0,0 v 0 c 0.167,-1.021 1.13,-1.714 2.15,-1.547 l 10.331,1.681 c 1.022,0.166 1.714,1.13 1.547,2.15 -0.166,1.022 -1.129,1.714 -2.15,1.547 L 1.547,2.151 C 0.525,1.984 -0.167,1.021 0,0" /></g><g
         transform="translate(255.0078,81.9316)"
         id="g2107"><path
           inkscape:connector-curvature="0"
           id="path2109"
           style="fill:#f9b48d;fill-opacity:1;fill-rule:nonzero;stroke:none"
           d="m 0,0 v 0 c 0.167,-1.021 1.13,-1.713 2.151,-1.547 l 10.33,1.681 c 1.022,0.167 1.714,1.13 1.548,2.151 -0.167,1.021 -1.13,1.714 -2.151,1.547 L 1.547,2.151 C 0.525,1.984 -0.167,1.021 0,0" /></g><g
         transform="translate(262.8906,88.0859)"
         id="g2111"><path
           inkscape:connector-curvature="0"
           id="path2113"
           style="fill:#f9b48d;fill-opacity:1;fill-rule:nonzero;stroke:none"
           d="m 0,0 c 2.632,-1.882 3.239,-5.541 1.357,-8.173 -1.882,-2.632 -5.542,-3.239 -8.173,-1.357 -2.632,1.883 -3.24,5.542 -1.358,8.174 C -6.291,1.275 -2.632,1.883 0,0" /></g><g
         transform="translate(296.9463,102.1475)"
         id="g2115"><path
           inkscape:connector-curvature="0"
           id="path2117"
           style="fill:#3da2ff;fill-opacity:1;fill-rule:nonzero;stroke:none"
           d="m 0,0 v 0 c 2.224,1.874 2.507,5.195 0.632,7.419 l -9.36,11.839 c -1.65,1.958 -4.574,2.207 -6.532,0.557 l -0.962,-0.811 c -1.958,-1.65 -2.207,-4.575 -0.557,-6.532 l 9.36,-11.84 C -5.545,-1.591 -2.224,-1.874 0,0" /></g><g
         transform="translate(302.9131,95.0439)"
         id="g2119"><path
           inkscape:connector-curvature="0"
           id="path2121"
           style="fill:#f9b48d;fill-opacity:1;fill-rule:nonzero;stroke:none"
           d="m 0,0 v 0 c 1.729,1.458 1.949,4.041 0.491,5.771 l -5.607,6.894 c -1.283,1.523 -3.558,1.717 -5.08,0.434 l -0.749,-0.631 c -1.523,-1.284 -1.717,-3.559 -0.433,-5.081 L -5.771,0.492 C -4.313,-1.237 -1.729,-1.458 0,0" /></g><g
         transform="translate(303.2334,101.1104)"
         id="g2123"><path
           inkscape:connector-curvature="0"
           id="path2125"
           style="fill:#f9b48d;fill-opacity:1;fill-rule:nonzero;stroke:none"
           d="m 0,0 v 0 c 1.604,-1.512 1.688,-4.033 0.189,-5.648 l -12.97,-13.98 c -1.521,-1.612 -4.061,-1.687 -5.673,-0.167 -1.612,1.521 -1.688,4.061 -0.167,5.673 L -5.694,-0.19 C -4.178,1.443 -1.621,1.529 0,0" /></g><g
         transform="translate(291.6445,86.2734)"
         id="g2127"><path
           inkscape:connector-curvature="0"
           id="path2129"
           style="fill:#f9b48d;fill-opacity:1;fill-rule:nonzero;stroke:none"
           d="m 0,0 v 0 c -0.167,-1.021 -1.13,-1.714 -2.15,-1.547 l -10.331,1.681 c -1.022,0.166 -1.714,1.13 -1.547,2.15 0.167,1.022 1.13,1.714 2.15,1.547 L -1.547,2.151 C -0.525,1.984 0.167,1.021 0,0" /></g><g
         transform="translate(288.6064,81.9316)"
         id="g2131"><path
           inkscape:connector-curvature="0"
           id="path2133"
           style="fill:#f9b48d;fill-opacity:1;fill-rule:nonzero;stroke:none"
           d="m 0,0 v 0 c -0.167,-1.021 -1.13,-1.713 -2.151,-1.547 l -10.33,1.681 c -1.022,0.167 -1.714,1.13 -1.548,2.151 0.167,1.021 1.13,1.714 2.151,1.547 L -1.547,2.151 C -0.526,1.984 0.167,1.021 0,0" /></g><g
         transform="translate(280.7236,88.0859)"
         id="g2135"><path
           inkscape:connector-curvature="0"
           id="path2137"
           style="fill:#f9b48d;fill-opacity:1;fill-rule:nonzero;stroke:none"
           d="m 0,0 c -2.632,-1.882 -3.239,-5.541 -1.356,-8.173 1.881,-2.632 5.541,-3.239 8.172,-1.357 2.632,1.883 3.24,5.542 1.358,8.174 C 6.291,1.275 2.632,1.883 0,0" /></g><g
         transform="translate(286.6045,70.8545)"
         id="g2139"><path
           inkscape:connector-curvature="0"
           id="path2141"
           style="fill:#3da2ff;fill-opacity:1;fill-rule:nonzero;stroke:none"
           d="m 0,0 h -29.6 l -1.703,50.038 c 0,5.819 33.007,5.819 33.007,0 z" /></g><g
         transform="translate(271.8047,121.4121)"
         id="g2143"><path
           inkscape:connector-curvature="0"
           id="path2145"
           style="fill:none;stroke:#0171fe;stroke-width:0.31200001;stroke-linecap:butt;stroke-linejoin:miter;stroke-miterlimit:10;stroke-dasharray:none;stroke-opacity:1"
           d="M 0,0 V -25.876" /></g><g
         transform="translate(272.8184,117.541)"
         id="g2147"><path
           inkscape:connector-curvature="0"
           id="path2149"
           style="fill:#facb53;fill-opacity:1;fill-rule:nonzero;stroke:none"
           d="m 0,0 c 0,-0.56 -0.454,-1.014 -1.014,-1.014 -0.559,0 -1.013,0.454 -1.013,1.014 0,0.56 0.454,1.013 1.013,1.013 C -0.454,1.013 0,0.56 0,0" /></g><g
         transform="translate(272.8184,106.4736)"
         id="g2151"><path
           inkscape:connector-curvature="0"
           id="path2153"
           style="fill:#facb53;fill-opacity:1;fill-rule:nonzero;stroke:none"
           d="m 0,0 c 0,-0.56 -0.454,-1.014 -1.014,-1.014 -0.559,0 -1.013,0.454 -1.013,1.014 0,0.56 0.454,1.013 1.013,1.013 C -0.454,1.013 0,0.56 0,0" /></g><g
         transform="translate(276.8242,122.9707)"
         id="g2155"><path
           inkscape:connector-curvature="0"
           id="path2157"
           style="fill:#e2e2e2;fill-opacity:1;fill-rule:nonzero;stroke:none"
           d="m 0,0 h -10.039 v 3.036 c 0,0.446 0.361,0.809 0.809,0.809 h 8.421 C -0.361,3.845 0,3.482 0,3.036 Z" /></g><path
         inkscape:connector-curvature="0"
         id="path2159"
         style="fill:#f9b48d;fill-opacity:1;fill-rule:nonzero;stroke:none"
         d="m 274.933,121.672 h -6.256 v 13.612 h 6.256 z" /><g
         transform="translate(287.5625,138.2861)"
         id="g2161"><path
           inkscape:connector-curvature="0"
           id="path2163"
           style="fill:#f9b48d;fill-opacity:1;fill-rule:nonzero;stroke:none"
           d="m 0,0 c 0,-2.031 -1.646,-3.678 -3.677,-3.678 -2.031,0 -3.677,1.647 -3.677,3.678 0,2.03 1.646,3.677 3.677,3.677 C -1.646,3.677 0,2.03 0,0" /></g><g
         transform="translate(263.4014,138.2861)"
         id="g2165"><path
           inkscape:connector-curvature="0"
           id="path2167"
           style="fill:#f9b48d;fill-opacity:1;fill-rule:nonzero;stroke:none"
           d="m 0,0 c 0,-2.031 -1.646,-3.678 -3.677,-3.678 -2.031,0 -3.677,1.647 -3.677,3.678 0,2.03 1.646,3.677 3.677,3.677 C -1.646,3.677 0,2.03 0,0" /></g><g
         transform="translate(271.8047,127.209)"
         id="g2169"><path
           inkscape:connector-curvature="0"
           id="path2171"
           style="fill:#f9b48d;fill-opacity:1;fill-rule:nonzero;stroke:none"
           d="m 0,0 v 0 c 6.672,0 12.08,4.474 12.08,11.145 v 6.805 c 0,6.672 -5.408,12.08 -12.08,12.08 -6.672,0 -12.08,-5.408 -12.08,-12.08 V 11.145 C -12.08,4.474 -6.672,0 0,0" /></g><g
         transform="translate(275.0488,132.0586)"
         id="g2173"><path
           inkscape:connector-curvature="0"
           id="path2175"
           style="fill:#f7f4f5;fill-opacity:1;fill-rule:nonzero;stroke:none"
           d="m 0,0 h -6.503 c 0,-1.496 1.213,-2.709 2.71,-2.709 H -2.71 C -1.213,-2.709 0,-1.496 0,0" /></g><g
         transform="translate(271.7969,135.2842)"
         id="g2177"><path
           inkscape:connector-curvature="0"
           id="path2179"
           style="fill:#dc7a63;fill-opacity:1;fill-rule:nonzero;stroke:none"
           d="M 0,0 V 0 C 0.855,0 1.549,0.693 1.549,1.549 H -1.548 C -1.548,0.693 -0.854,0 0,0" /></g><g
         transform="translate(266.0176,138.8672)"
         id="g2181"><path
           inkscape:connector-curvature="0"
           id="path2183"
           style="fill:none;stroke:#4f1111;stroke-width:0.51599997;stroke-linecap:round;stroke-linejoin:miter;stroke-miterlimit:10;stroke-dasharray:none;stroke-opacity:1"
           d="M 0,0 C 0,0.77 0.624,1.393 1.393,1.393 2.162,1.393 2.785,0.77 2.785,0" /></g><g
         transform="translate(274.7568,138.8672)"
         id="g2185"><path
           inkscape:connector-curvature="0"
           id="path2187"
           style="fill:none;stroke:#4f1111;stroke-width:0.51599997;stroke-linecap:round;stroke-linejoin:miter;stroke-miterlimit:10;stroke-dasharray:none;stroke-opacity:1"
           d="M 0,0 C 0,0.77 0.624,1.393 1.393,1.393 2.161,1.393 2.785,0.77 2.785,0" /></g><g
         transform="translate(278.1133,163.084)"
         id="g2189"><path
           inkscape:connector-curvature="0"
           id="path2191"
           style="fill:#001056;fill-opacity:1;fill-rule:nonzero;stroke:none"
           d="m 0,0 h -7.12 c -0.413,0 -0.818,-0.03 -1.219,-0.082 l 1.219,1.484 c -6.577,0 -9.234,-4.886 -9.864,-9.765 -1.417,-1.83 -2.264,-4.126 -2.264,-6.621 v -5.171 c 0,-0.853 0.327,-1.626 0.859,-2.21 v 4.44 c 0,0.581 0.044,1.153 0.123,1.712 0.517,0.842 1.446,1.404 2.506,1.404 0.394,0 0.77,-0.079 1.114,-0.219 v 3.007 c 3.779,-0.448 11.107,-0.561 16.678,-0.339 v -2.668 c 0.344,0.14 0.719,0.219 1.114,0.219 1.058,0 1.985,-0.56 2.501,-1.399 0.081,-0.562 0.124,-1.134 0.124,-1.717 v -4.44 c 0.532,0.584 0.86,1.357 0.86,2.21 v 5.171 c 0,1.003 -0.14,1.972 -0.395,2.894 1.907,0.191 3.122,0.451 3.122,0.783 v 1.325 C 9.358,-4.47 5.169,0 0,0" /></g><g
         transform="translate(268.583,120.2168)"
         id="g2193"><path
           inkscape:connector-curvature="0"
           id="path2195"
           style="fill:#fefdfe;fill-opacity:1;fill-rule:nonzero;stroke:none"
           d="m 0,0 v 0 c -0.976,0 -1.767,0.791 -1.767,1.767 v 4.132 c 0,0.358 0.29,0.648 0.648,0.648 h 0.064 c 1.558,0 2.822,-1.264 2.822,-2.821 V 1.767 C 1.767,0.791 0.976,0 0,0" /></g><g
         transform="translate(275.0264,120.2168)"
         id="g2197"><path
           inkscape:connector-curvature="0"
           id="path2199"
           style="fill:#fefdfe;fill-opacity:1;fill-rule:nonzero;stroke:none"
           d="m 0,0 v 0 c 0.976,0 1.767,0.791 1.767,1.767 v 4.132 c 0,0.358 -0.29,0.648 -0.648,0.648 H 1.055 c -1.558,0 -2.822,-1.264 -2.822,-2.822 V 1.767 C -1.767,0.791 -0.976,0 0,0" /></g><g
         transform="translate(289.0684,70.3867)"
         id="g2201"><path
           inkscape:connector-curvature="0"
           id="path2203"
           style="fill:#bcbbb8;fill-opacity:1;fill-rule:nonzero;stroke:none"
           d="m 0,0 h -33.88 c -1.156,0 -2.093,0.937 -2.093,2.093 0,1.156 0.937,2.093 2.093,2.093 H 0 C 1.156,4.186 2.093,3.249 2.093,2.093 2.093,0.937 1.156,0 0,0" /></g><g
         transform="translate(287.584,73.5762)"
         id="g2205"><path
           inkscape:connector-curvature="0"
           id="path2207"
           style="fill:#d3d3d3;fill-opacity:1;fill-rule:nonzero;stroke:none"
           d="m 0,0 h -30.91 c -1.613,0 -2.997,1.147 -3.296,2.732 l -3.567,18.938 c -0.415,2.202 1.274,4.238 3.514,4.238 H 3.348 c 2.24,0 3.929,-2.036 3.514,-4.238 L 3.295,2.732 C 2.996,1.147 1.612,0 0,0" /></g><g
         transform="translate(274.9902,85.9326)"
         id="g2209"><path
           inkscape:connector-curvature="0"
           id="path2211"
           style="fill:#fefdfe;fill-opacity:1;fill-rule:nonzero;stroke:none"
           d="m 0,0 c 0,-1.376 -1.281,-2.491 -2.861,-2.491 -1.581,0 -2.864,1.115 -2.864,2.491 0,1.376 1.283,2.491 2.864,2.491 C -1.281,2.491 0,1.376 0,0" /></g><path
         inkscape:connector-curvature="0"
         id="path2213"
         style="fill:#001056;fill-opacity:1;fill-rule:nonzero;stroke:none"
         d="m 180.928,117.033 h -27.885 v 20.914 h 27.885 z" /><g
         transform="translate(158.0918,56.7236)"
         id="g2215"><path
           inkscape:connector-curvature="0"
           id="path2217"
           style="fill:#facb53;fill-opacity:1;fill-rule:nonzero;stroke:none"
           d="m 0,0 0.514,24.479 c 0.027,2.262 -1.764,4.119 -4.001,4.146 -2.238,0.028 -4.073,-1.783 -4.1,-4.046 L -8.1,0.101 c -0.028,-2.263 1.764,-4.12 4,-4.147 C -1.862,-4.074 -0.027,-2.263 0,0" /></g><g
         transform="translate(154.2031,141.5986)"
         id="g2219"><path
           inkscape:connector-curvature="0"
           id="path2221"
           style="fill:#001056;fill-opacity:1;fill-rule:nonzero;stroke:none"
           d="m 0,0 -5.312,-40.801 c -0.494,-3.723 2.09,-7.147 5.772,-7.647 3.683,-0.501 7.068,2.112 7.562,5.837 l 5.312,40.799 C 13.828,1.912 11.244,5.337 7.562,5.837 3.88,6.337 0.494,3.724 0,0" /></g><g
         transform="translate(148.6436,99.1016)"
         id="g2223"><path
           inkscape:connector-curvature="0"
           id="path2225"
           style="fill:#001056;fill-opacity:1;fill-rule:nonzero;stroke:none"
           d="m 0,0 -1.191,-32.403 c -0.173,-3.754 2.695,-6.938 6.407,-7.113 3.711,-0.174 6.859,2.727 7.032,6.48 l 1.191,32.404 C 13.612,3.121 10.743,6.305 7.032,6.479 3.321,6.654 0.173,3.753 0,0" /></g><g
         transform="translate(160.5371,49.5283)"
         id="g2227"><path
           inkscape:connector-curvature="0"
           id="path2229"
           style="fill:#001056;fill-opacity:1;fill-rule:nonzero;stroke:none"
           d="m 0,0 -27.631,-0.005 c -0.287,1.958 1.062,3.778 3.001,4.048 l 20.003,2.788 c 0.123,0.017 0.245,0.028 0.367,0.034 2.229,0.109 4.068,-1.771 4.153,-4.025 z" /></g><g
         transform="translate(158.7529,54.6846)"
         id="g2231"><path
           inkscape:connector-curvature="0"
           id="path2233"
           style="fill:#001056;fill-opacity:1;fill-rule:nonzero;stroke:none"
           d="m 0,0 -13.091,-0.013 c -0.152,1.041 0.565,2.008 1.596,2.152 L -0.866,3.62 C 0.179,3.766 1.178,3.139 1.513,2.127 1.858,1.082 1.09,0.001 0,0" /></g><g
         transform="translate(140.8281,56.5049)"
         id="g2235"><path
           inkscape:connector-curvature="0"
           id="path2237"
           style="fill:none;stroke:#3da2ff;stroke-width:0.484;stroke-linecap:butt;stroke-linejoin:miter;stroke-miterlimit:10;stroke-dasharray:none;stroke-opacity:1"
           d="M 0,0 C 1.386,-0.65 2.319,-1.59 2.086,-2.098 1.853,-2.605 0.541,-2.489 -0.845,-1.838 -2.23,-1.187 -3.164,-0.247 -2.931,0.26 -2.697,0.768 -1.386,0.651 0,0 Z" /></g><g
         transform="translate(145.0937,56.292)"
         id="g2239"><path
           inkscape:connector-curvature="0"
           id="path2241"
           style="fill:none;stroke:#3da2ff;stroke-width:0.484;stroke-linecap:butt;stroke-linejoin:miter;stroke-miterlimit:10;stroke-dasharray:none;stroke-opacity:1"
           d="m 0,0 c -0.549,-1.196 -1.342,-2.002 -1.771,-1.801 -0.428,0.201 -0.33,1.334 0.22,2.53 0.549,1.196 1.342,2.001 1.771,1.8 C 0.648,2.328 0.55,1.195 0,0 Z" /></g><g
         transform="translate(180.6963,54.4502)"
         id="g2243"><path
           inkscape:connector-curvature="0"
           id="path2245"
           style="fill:#facb53;fill-opacity:1;fill-rule:nonzero;stroke:none"
           d="m 0,0 -3.453,24.24 c -0.299,2.243 1.277,4.303 3.519,4.602 2.243,0.3 4.303,-1.277 4.602,-3.519 L 8.12,1.083 C 8.419,-1.159 6.844,-3.22 4.602,-3.519 2.358,-3.817 0.299,-2.242 0,0" /></g><g
         transform="translate(179.6426,141.5986)"
         id="g2247"><path
           inkscape:connector-curvature="0"
           id="path2249"
           style="fill:#001056;fill-opacity:1;fill-rule:nonzero;stroke:none"
           d="m 0,0 9.924,-74.01 c 0.5,-3.724 -2.113,-7.148 -5.837,-7.648 -3.724,-0.5 -7.148,2.113 -7.648,5.837 l -9.924,74.009 c -0.5,3.724 2.113,7.149 5.837,7.649 C -3.925,6.337 -0.5,3.724 0,0" /></g><g
         transform="translate(177.1025,49.5283)"
         id="g2251"><path
           inkscape:connector-curvature="0"
           id="path2253"
           style="fill:#001056;fill-opacity:1;fill-rule:nonzero;stroke:none"
           d="m 0,0 27.943,-0.005 c 0.29,1.958 -1.073,3.778 -3.035,4.048 L 4.68,6.831 C 4.556,6.848 4.432,6.859 4.308,6.865 2.055,6.974 0.194,5.094 0.108,2.84 Z" /></g><g
         transform="translate(178.9062,54.6846)"
         id="g2255"><path
           inkscape:connector-curvature="0"
           id="path2257"
           style="fill:#001056;fill-opacity:1;fill-rule:nonzero;stroke:none"
           d="m 0,0 13.239,-0.013 c 0.155,1.041 -0.571,2.008 -1.613,2.152 L 0.876,3.62 C -0.181,3.766 -1.19,3.139 -1.529,2.127 -1.879,1.082 -1.102,0.001 0,0" /></g><g
         transform="translate(197.0342,56.5049)"
         id="g2259"><path
           inkscape:connector-curvature="0"
           id="path2261"
           style="fill:none;stroke:#3da2ff;stroke-width:0.486;stroke-linecap:butt;stroke-linejoin:miter;stroke-miterlimit:10;stroke-dasharray:none;stroke-opacity:1"
           d="m 0,0 c -1.4,-0.65 -2.346,-1.59 -2.109,-2.098 0.235,-0.507 1.562,-0.391 2.963,0.26 C 2.256,-1.187 3.2,-0.247 2.964,0.26 2.729,0.768 1.401,0.651 0,0 Z" /></g><g
         transform="translate(192.7197,56.292)"
         id="g2263"><path
           inkscape:connector-curvature="0"
           id="path2265"
           style="fill:none;stroke:#3da2ff;stroke-width:0.486;stroke-linecap:butt;stroke-linejoin:miter;stroke-miterlimit:10;stroke-dasharray:none;stroke-opacity:1"
           d="M 0,0 C 0.556,-1.196 1.357,-2.002 1.791,-1.801 2.225,-1.6 2.125,-0.467 1.569,0.729 1.014,1.925 0.212,2.73 -0.222,2.529 -0.654,2.328 -0.556,1.195 0,0 Z" /></g><g
         transform="translate(177.2314,136.1797)"
         id="g2267"><path
           inkscape:connector-curvature="0"
           id="path2269"
           style="fill:#3da2ff;fill-opacity:1;fill-rule:nonzero;stroke:none"
           d="m 0,0 h -24.456 l -1.704,50.037 c 0,5.819 27.864,5.819 27.864,0 z" /></g><g
         transform="translate(152.3555,131.1348)"
         id="g2271"><path
           inkscape:connector-curvature="0"
           id="path2273"
           style="fill:#3da2ff;fill-opacity:1;fill-rule:nonzero;stroke:none"
           d="M 0,0 V 0 19.104 H 9.982 V 9.981 C 9.982,4.469 5.514,0 0,0" /></g><g
         transform="translate(169.9775,130.6592)"
         id="g2275"><path
           inkscape:connector-curvature="0"
           id="path2277"
           style="fill:#3da2ff;fill-opacity:1;fill-rule:nonzero;stroke:none"
           d="M 0,0 H 7.888 V 34.422 H -10.099 V 10.099 C -10.099,4.521 -5.577,0 0,0" /></g><g
         transform="translate(193.1562,163.1875)"
         id="g2279"><path
           inkscape:connector-curvature="0"
           id="path2281"
           style="fill:#3da2ff;fill-opacity:1;fill-rule:nonzero;stroke:none"
           d="m 0,0 v 0 c 2.476,2.117 2.767,5.841 0.648,8.316 l -13.541,16.758 c -1.864,2.181 -5.143,2.437 -7.323,0.572 l -1.071,-0.917 c -2.181,-1.864 -2.436,-5.142 -0.572,-7.322 L -8.317,0.649 C -6.2,-1.827 -2.477,-2.117 0,0" /></g><g
         transform="translate(188.1914,162.874)"
         id="g2283"><path
           inkscape:connector-curvature="0"
           id="path2285"
           style="fill:#f9b48d;fill-opacity:1;fill-rule:nonzero;stroke:none"
           d="m 0,0 v 0 c 2.284,-0.877 3.434,-3.432 2.574,-5.723 l -7.431,-19.821 c -0.883,-2.297 -3.459,-3.443 -5.756,-2.561 -2.297,0.881 -3.444,3.459 -2.562,5.754 l 7.407,19.756 C -4.899,-0.278 -2.31,0.887 0,0" /></g><g
         transform="translate(182.54,142.7529)"
         id="g2287"><path
           inkscape:connector-curvature="0"
           id="path2289"
           style="fill:#f9b48d;fill-opacity:1;fill-rule:nonzero;stroke:none"
           d="m 0,0 v 0 c 0.259,-1.119 -0.438,-2.236 -1.557,-2.495 l -11.318,-2.627 c -1.119,-0.259 -2.236,0.438 -2.495,1.558 -0.259,1.119 0.438,2.236 1.557,2.495 L -2.495,1.558 C -1.376,1.816 -0.259,1.119 0,0" /></g><g
         transform="translate(181.249,137.0137)"
         id="g2291"><path
           inkscape:connector-curvature="0"
           id="path2293"
           style="fill:#f9b48d;fill-opacity:1;fill-rule:nonzero;stroke:none"
           d="m 0,0 v 0 c 0.259,-1.118 -0.438,-2.235 -1.558,-2.494 l -11.318,-2.627 c -1.119,-0.259 -2.236,0.438 -2.494,1.557 v 10e-4 c -0.26,1.118 0.437,2.235 1.557,2.495 L -2.495,1.558 C -1.376,1.816 -0.259,1.119 0,0" /></g><g
         transform="translate(170.5605,140.0137)"
         id="g2295"><path
           inkscape:connector-curvature="0"
           id="path2297"
           style="fill:#f9b48d;fill-opacity:1;fill-rule:nonzero;stroke:none"
           d="m 0,0 c -1.91,-3.042 -0.992,-7.057 2.05,-8.966 3.042,-1.91 7.055,-0.992 8.966,2.05 1.91,3.042 0.992,7.057 -2.05,8.966 C 5.924,3.96 1.909,3.042 0,0" /></g><g
         transform="translate(179.1201,141.7109)"
         id="g2299"><path
           inkscape:connector-curvature="0"
           id="path2301"
           style="fill:#3da2ff;fill-opacity:1;fill-rule:nonzero;stroke:none"
           d="m 0,0 v 0 c 3.034,-1.187 6.456,0.309 7.644,3.343 l 8.409,19.836 c 1.046,2.672 -0.273,5.684 -2.944,6.73 l -1.312,0.514 C 9.126,31.469 6.112,30.15 5.066,27.479 L -3.343,7.644 C -4.53,4.609 -3.034,1.187 0,0" /></g><g
         transform="translate(187.085,142.3691)"
         id="g2303"><path
           inkscape:connector-curvature="0"
           id="path2305"
           style="fill:#0171fe;fill-opacity:1;fill-rule:nonzero;stroke:none"
           d="M 0,0 -1.636,-3.626 C -2.242,-4.8 -3.687,-5.261 -4.861,-4.654 l -8.509,4.395 c -1.175,0.607 -1.635,2.05 -1.028,3.225 l 1.636,3.626 c 0.607,1.175 2.05,1.635 3.225,1.028 L -1.028,3.226 C 0.146,2.619 0.606,1.175 0,0" /></g><g
         transform="translate(151.0742,186.1367)"
         id="g2307"><path
           inkscape:connector-curvature="0"
           id="path2309"
           style="fill:#0171fe;fill-opacity:1;fill-rule:nonzero;stroke:none"
           d="M 0,0 C -0.938,-0.426 -1.762,-1.13 -2.325,-2.085 L -13.79,-20.327 c -1.656,-2.806 -0.724,-6.422 2.081,-8.078 2.806,-1.657 6.423,-0.725 8.079,2.081 l 4.293,6.832 z" /></g><g
         transform="translate(136.6055,164.667)"
         id="g2311"><path
           inkscape:connector-curvature="0"
           id="path2313"
           style="fill:#dc7a63;fill-opacity:1;fill-rule:nonzero;stroke:none"
           d="m 0,0 v 0 c -0.896,-2.013 -3.248,-2.927 -5.269,-2.047 l -17.482,7.615 c -2.025,0.902 -2.936,3.274 -2.035,5.298 0.901,2.026 3.273,2.936 5.298,2.035 L -2.063,5.311 C -0.021,4.421 0.906,2.036 0,0" /></g><g
         transform="translate(116.4307,174.5137)"
         id="g2315"><path
           inkscape:connector-curvature="0"
           id="path2317"
           style="fill:#dc7a63;fill-opacity:1;fill-rule:nonzero;stroke:none"
           d="m 0,0 v 0 c 0.002,-1.264 -1.022,-2.29 -2.286,-2.291 l -12.789,-0.023 c -1.264,-10e-4 -2.29,1.022 -2.291,2.287 -0.002,1.263 1.021,2.29 2.286,2.291 L -2.292,2.287 C -1.027,2.288 -0.001,1.265 0,0" /></g><g
         transform="translate(116.9902,173.1016)"
         id="g2319"><path
           inkscape:connector-curvature="0"
           id="path2321"
           style="fill:#0171fe;fill-opacity:1;fill-rule:nonzero;stroke:none"
           d="m 0,0 v 0 c -1.187,-3.033 0.309,-6.455 3.343,-7.643 l 19.836,-8.41 c 2.671,-1.045 5.684,0.273 6.73,2.944 l 0.514,1.312 c 1.046,2.672 -0.273,5.685 -2.944,6.731 L 7.644,3.343 C 4.609,4.53 1.187,3.034 0,0" /></g><g
         transform="translate(116.6836,177.3057)"
         id="g2323"><path
           inkscape:connector-curvature="0"
           id="path2325"
           style="fill:#001056;fill-opacity:1;fill-rule:nonzero;stroke:none"
           d="M 0,0 0.023,1.273 0.758,1.989 0.733,0.715 Z" /></g><g
         transform="translate(117.417,178.0205)"
         id="g2327"><path
           inkscape:connector-curvature="0"
           id="path2329"
           style="fill:#001056;fill-opacity:1;fill-rule:nonzero;stroke:none"
           d="m 0,0 c -0.014,-0.717 -0.61,-1.285 -1.327,-1.263 l -19.903,0.609 c -0.711,0.013 -1.278,0.601 -1.264,1.313 0.014,0.712 0.601,1.278 1.313,1.264 L 0.024,1.274 Z" /></g><g
         transform="translate(87.4473,200.9014)"
         id="g2331"><path
           inkscape:connector-curvature="0"
           id="path2333"
           style="fill:#001056;fill-opacity:1;fill-rule:nonzero;stroke:none"
           d="M 0,0 10.579,-22.336 8.662,-23.132 -1.917,-0.795 Z" /></g><g
         transform="translate(101.707,178.5654)"
         id="g2335"><path
           inkscape:connector-curvature="0"
           id="path2337"
           style="fill:#001056;fill-opacity:1;fill-rule:nonzero;stroke:none"
           d="M 0,0 -10.578,22.336 H -14.26 L -3.681,0 Z" /></g><g
         transform="translate(98.4277,179.1992)"
         id="g2339"><path
           inkscape:connector-curvature="0"
           id="path2341"
           style="fill:#3da2ff;fill-opacity:1;fill-rule:nonzero;stroke:none"
           d="M 0,0 -9.979,21.068 H -7.7 L 2.278,0 Z" /></g><g
         transform="translate(116.6836,177.3057)"
         id="g2343"><path
           inkscape:connector-curvature="0"
           id="path2345"
           style="fill:#001056;fill-opacity:1;fill-rule:nonzero;stroke:none"
           d="m 0,0 c -0.015,-0.717 -0.611,-1.285 -1.328,-1.263 l -19.903,0.609 c -0.711,0.013 -1.278,0.601 -1.264,1.313 0.014,0.712 0.602,1.278 1.313,1.264 L 0.023,1.273 Z" /></g><g
         transform="translate(117.6484,165.1367)"
         id="g2347"><path
           inkscape:connector-curvature="0"
           id="path2349"
           style="fill:#0050d2;fill-opacity:1;fill-rule:nonzero;stroke:none"
           d="M 0,0 -3.626,1.637 C -4.8,2.243 -5.261,3.687 -4.654,4.861 l 4.394,8.509 c 0.608,1.175 2.051,1.635 3.226,1.028 L 6.592,12.763 C 7.767,12.155 8.227,10.712 7.62,9.537 L 3.226,1.028 C 2.619,-0.146 1.175,-0.606 0,0" /></g><g
         transform="translate(162.1543,190.499)"
         id="g2351"><path
           inkscape:connector-curvature="0"
           id="path2353"
           style="fill:#0171fe;fill-opacity:1;fill-rule:nonzero;stroke:none"
           d="M 0,0 V 3.088 C 0,3.534 -0.362,3.896 -0.809,3.896 H -0.89 c -1.946,0 -3.525,-1.578 -3.525,-3.525 V -0.495 C -3.046,-0.256 -1.548,-0.091 0,0" /></g><g
         transform="translate(163.21,185.8154)"
         id="g2355"><path
           inkscape:connector-curvature="0"
           id="path2357"
           style="fill:#f9b48d;fill-opacity:1;fill-rule:nonzero;stroke:none"
           d="m 0,0 v 0 c -2.158,0 -3.908,1.75 -3.908,3.908 v 13.1 H 3.908 V 3.908 C 3.908,1.75 2.158,0 0,0" /></g><g
         transform="translate(153.4375,193.0078)"
         id="g2359"><path
           inkscape:connector-curvature="0"
           id="path2361"
           style="fill:#f9b48d;fill-opacity:1;fill-rule:nonzero;stroke:none"
           d="M 0,0 13.674,0.025 13.632,22.906 C 13.623,27.694 9.734,31.568 4.946,31.56 L 0.925,31.553 C -6.085,31.54 -11.757,25.847 -11.744,18.838 l 0.014,-7.15 C -11.719,5.221 -6.467,-0.012 0,0" /></g><g
         transform="translate(142.374,206.6318)"
         id="g2363"><path
           inkscape:connector-curvature="0"
           id="path2365"
           style="fill:none;stroke:#4f1111;stroke-width:0.419;stroke-linecap:round;stroke-linejoin:miter;stroke-miterlimit:10;stroke-dasharray:none;stroke-opacity:1"
           d="m 0,0 c 0,-2.21 -1.271,-4.003 -2.839,-4.003 -1.567,0 -2.838,1.793 -2.838,4.003 0,2.211 1.271,4.003 2.838,4.003 C -1.271,4.003 0,2.211 0,0 Z" /></g><g
         transform="translate(150.4834,198.3164)"
         id="g2367"><path
           inkscape:connector-curvature="0"
           id="path2369"
           style="fill:#f7f4f5;fill-opacity:1;fill-rule:nonzero;stroke:none"
           d="m 0,0 c 0.002,-0.804 -0.648,-1.456 -1.452,-1.457 -0.804,-0.002 -1.456,0.648 -1.458,1.452 -10e-4,0.803 0.649,1.456 1.452,1.457 C -0.654,1.454 -0.001,0.804 0,0" /></g><g
         transform="translate(146.8984,203.0654)"
         id="g2371"><path
           inkscape:connector-curvature="0"
           id="path2373"
           style="fill:#f9b48d;fill-opacity:1;fill-rule:nonzero;stroke:none"
           d="M 0,0 C 0.004,-2.134 -1.723,-3.866 -3.856,-3.87 -5.99,-3.874 -7.723,-2.147 -7.727,-0.015 -7.73,2.119 -6.004,3.853 -3.871,3.856 -1.737,3.86 -0.004,2.134 0,0" /></g><g
         transform="translate(150.1377,206.6318)"
         id="g2375"><path
           inkscape:connector-curvature="0"
           id="path2377"
           style="fill:none;stroke:#4f1111;stroke-width:0.56199998;stroke-linecap:round;stroke-linejoin:miter;stroke-miterlimit:10;stroke-dasharray:none;stroke-opacity:1"
           d="m 0,0 c 0,-2.962 -1.702,-5.362 -3.803,-5.362 -2.099,0 -3.802,2.4 -3.802,5.362 0,2.962 1.703,5.363 3.802,5.363 C -1.702,5.363 0,2.962 0,0 Z" /></g><g
         transform="translate(163.4502,207.584)"
         id="g2379"><path
           inkscape:connector-curvature="0"
           id="path2381"
           style="fill:#f9b48d;fill-opacity:1;fill-rule:nonzero;stroke:none"
           d="m 0,0 c 0.005,-2.641 -2.132,-4.784 -4.771,-4.789 -2.64,-0.005 -4.785,2.131 -4.79,4.771 -0.004,2.64 2.132,4.785 4.772,4.789 C -2.149,4.776 -0.005,2.64 0,0" /></g><g
         transform="translate(157.0693,218.4355)"
         id="g2383"><path
           inkscape:connector-curvature="0"
           id="path2385"
           style="fill:#001056;fill-opacity:1;fill-rule:nonzero;stroke:none"
           d="m 0,0 h -16.755 c -2.757,0 -4.991,2.234 -4.991,4.991 0,2.757 2.234,4.991 4.991,4.991 H 0 C 2.757,9.982 4.991,7.748 4.991,4.991 4.991,2.234 2.757,0 0,0" /></g><g
         transform="translate(149.9395,226.9922)"
         id="g2387"><path
           inkscape:connector-curvature="0"
           id="path2389"
           style="fill:#001056;fill-opacity:1;fill-rule:nonzero;stroke:none"
           d="m 0,0 c 0,-4.726 -3.83,-8.557 -8.556,-8.557 -4.725,0 -8.555,3.831 -8.555,8.557 0,4.725 3.83,8.556 8.555,8.556 C -3.83,8.556 0,4.725 0,0" /></g><g
         transform="translate(167.9912,204.4404)"
         id="g2391"><path
           inkscape:connector-curvature="0"
           id="path2393"
           style="fill:#001056;fill-opacity:1;fill-rule:nonzero;stroke:none"
           d="M 0,0 C -0.003,1.806 -1.47,3.266 -3.274,3.263 L -4.547,3.261 C -4.546,3.222 -4.541,3.183 -4.541,3.144 -4.538,1.502 -5.363,0.054 -6.622,-0.81 l 0.002,-1.016 c 0.003,-1.806 1.469,-3.266 3.274,-3.263 l 3.355,0.006 z" /></g><g
         transform="translate(169.5605,214.1562)"
         id="g2395"><path
           inkscape:connector-curvature="0"
           id="path2397"
           style="fill:#001056;fill-opacity:1;fill-rule:nonzero;stroke:none"
           d="m 0,0 c -0.014,7.135 -5.809,12.908 -12.943,12.895 l -5.324,-0.009 0.019,-10.083 c 0.006,-3.015 1.053,-5.782 2.788,-7.976 0.601,1.949 2.414,3.368 4.561,3.372 2.639,0.005 4.784,-2.132 4.789,-4.771 0.002,-1.295 -0.512,-2.468 -1.347,-3.33 0.701,-0.118 1.417,-0.192 2.151,-0.19 l 1.407,0.002 c 2.163,0.004 3.914,1.762 3.91,3.925 z" /></g><g
         transform="translate(147.5312,206.8574)"
         id="g2399"><path
           inkscape:connector-curvature="0"
           id="path2401"
           style="fill:none;stroke:#4f1111;stroke-width:0.542;stroke-linecap:round;stroke-linejoin:miter;stroke-miterlimit:10;stroke-dasharray:none;stroke-opacity:1"
           d="M 0,0 C 0.042,-0.807 -0.578,-1.495 -1.385,-1.537 -2.191,-1.579 -2.88,-0.96 -2.922,-0.152" /></g><g
         transform="translate(160.6865,183.998)"
         id="g2403"><path
           inkscape:connector-curvature="0"
           id="path2405"
           style="fill:#3da2ff;fill-opacity:1;fill-rule:nonzero;stroke:none"
           d="m 0,0 h 5.431 c 1.427,0 2.586,1.157 2.586,2.585 v 5.401 c 0,1.25 -1.014,2.263 -2.264,2.263 H 4.418 c -2.468,0 -4.468,-2 -4.468,-4.468 V 0.05 C -0.05,0.022 -0.027,0 0,0" /></g><path
         inkscape:connector-curvature="0"
         id="path2407"
         style="fill:#001056;fill-opacity:1;fill-rule:nonzero;stroke:none"
         d="m 376.512,117.183 h -24.258 v 20.914 h 24.258 z" /><g
         transform="translate(416.4287,70.2363)"
         id="g2409"><path
           inkscape:connector-curvature="0"
           id="path2411"
           style="fill:#fefdfe;fill-opacity:1;fill-rule:nonzero;stroke:none"
           d="m 0,0 -18.122,16.465 c -1.689,1.507 -4.265,1.375 -5.754,-0.293 -1.49,-1.669 -1.33,-4.243 0.357,-5.749 L -5.396,-6.042 c 1.687,-1.507 4.263,-1.375 5.753,0.293 C 1.848,-4.08 1.687,-1.507 0,0" /></g><g
         transform="translate(363.4854,132.8848)"
         id="g2413"><path
           inkscape:connector-curvature="0"
           id="path2415"
           style="fill:#001056;fill-opacity:1;fill-rule:nonzero;stroke:none"
           d="m 0,0 13.031,-39.026 c 1.181,-3.567 5,-5.519 8.531,-4.362 3.532,1.158 5.437,4.987 4.257,8.553 L 12.788,4.191 C 11.607,7.758 7.787,9.71 4.257,8.553 0.726,7.396 -1.181,3.566 0,0" /></g><g
         transform="translate(378.2666,90.9453)"
         id="g2417"><path
           inkscape:connector-curvature="0"
           id="path2419"
           style="fill:#001056;fill-opacity:1;fill-rule:nonzero;stroke:none"
           d="m 0,0 23.651,-22.182 c 2.717,-2.594 7.002,-2.523 9.572,0.161 2.569,2.684 2.45,6.963 -0.267,9.559 L 9.304,9.719 C 6.587,12.314 2.302,12.243 -0.268,9.559 -2.836,6.875 -2.717,2.596 0,0" /></g><g
         transform="translate(423.916,66.7871)"
         id="g2421"><path
           inkscape:connector-curvature="0"
           id="path2423"
           style="fill:#001056;fill-opacity:1;fill-rule:nonzero;stroke:none"
           d="m 0,0 -19.232,-19.838 c -1.607,1.158 -1.974,3.393 -0.818,4.974 L -8.125,1.435 c 0.074,0.1 0.15,0.196 0.231,0.288 1.474,1.674 4.104,1.686 5.782,0.177 z" /></g><g
         transform="translate(418.9727,69.0967)"
         id="g2425"><path
           inkscape:connector-curvature="0"
           id="path2427"
           style="fill:#001056;fill-opacity:1;fill-rule:nonzero;stroke:none"
           d="m 0,0 -9.104,-9.405 c -0.853,0.614 -1.048,1.802 -0.434,2.642 L -3.2,1.898 C -2.578,2.75 -1.432,3.03 -0.473,2.566 0.518,2.087 0.758,0.783 0,0" /></g><g
         transform="translate(405.1865,57.4971)"
         id="g2429"><path
           inkscape:connector-curvature="0"
           id="path2431"
           style="fill:none;stroke:#3da2ff;stroke-width:0.484;stroke-linecap:butt;stroke-linejoin:miter;stroke-miterlimit:10;stroke-dasharray:none;stroke-opacity:1"
           d="M 0,0 C 1.432,0.541 2.757,0.558 2.958,0.037 3.16,-0.484 2.163,-1.345 0.731,-1.886 -0.7,-2.427 -2.024,-2.443 -2.227,-1.923 -2.429,-1.401 -1.432,-0.541 0,0 Z" /></g><g
         transform="translate(408.3096,60.4111)"
         id="g2433"><path
           inkscape:connector-curvature="0"
           id="path2435"
           style="fill:none;stroke:#3da2ff;stroke-width:0.484;stroke-linecap:butt;stroke-linejoin:miter;stroke-miterlimit:10;stroke-dasharray:none;stroke-opacity:1"
           d="M 0,0 C 0.477,-1.228 0.503,-2.357 0.061,-2.525 -0.383,-2.692 -1.127,-1.833 -1.604,-0.606 -2.079,0.621 -2.105,1.751 -1.663,1.918 -1.22,2.086 -0.476,1.227 0,0 Z" /></g><g
         transform="translate(352.0928,54.5996)"
         id="g2437"><path
           inkscape:connector-curvature="0"
           id="path2439"
           style="fill:#fefdfe;fill-opacity:1;fill-rule:nonzero;stroke:none"
           d="m 0,0 3.452,24.24 c 0.299,2.242 -1.276,4.303 -3.519,4.602 -2.243,0.299 -4.303,-1.277 -4.602,-3.519 L -8.121,1.083 C -8.42,-1.159 -6.845,-3.22 -4.603,-3.519 -2.359,-3.817 -0.299,-2.242 0,0" /></g><g
         transform="translate(353.1465,141.748)"
         id="g2441"><path
           inkscape:connector-curvature="0"
           id="path2443"
           style="fill:#001056;fill-opacity:1;fill-rule:nonzero;stroke:none"
           d="m 0,0 -9.925,-74.011 c -0.5,-3.723 2.113,-7.147 5.837,-7.647 3.724,-0.5 7.149,2.113 7.649,5.837 l 9.923,74.009 C 13.985,1.912 11.372,5.337 7.647,5.837 3.924,6.337 0.5,3.724 0,0" /></g><g
         transform="translate(355.6855,49.6777)"
         id="g2445"><path
           inkscape:connector-curvature="0"
           id="path2447"
           style="fill:#001056;fill-opacity:1;fill-rule:nonzero;stroke:none"
           d="m 0,0 -27.943,-0.005 c -0.29,1.958 1.074,3.777 3.035,4.048 L -4.68,6.831 c 0.125,0.017 0.249,0.028 0.372,0.034 2.253,0.109 4.114,-1.771 4.2,-4.025 z" /></g><g
         transform="translate(353.8818,54.834)"
         id="g2449"><path
           inkscape:connector-curvature="0"
           id="path2451"
           style="fill:#001056;fill-opacity:1;fill-rule:nonzero;stroke:none"
           d="m 0,0 -13.238,-0.013 c -0.155,1.04 0.57,2.008 1.612,2.152 L -0.876,3.62 C 0.181,3.766 1.191,3.138 1.529,2.127 1.879,1.082 1.102,0.001 0,0" /></g><g
         transform="translate(335.7539,56.6543)"
         id="g2453"><path
           inkscape:connector-curvature="0"
           id="path2455"
           style="fill:none;stroke:#3da2ff;stroke-width:0.486;stroke-linecap:butt;stroke-linejoin:miter;stroke-miterlimit:10;stroke-dasharray:none;stroke-opacity:1"
           d="m 0,0 c 1.401,-0.65 2.346,-1.59 2.109,-2.098 -0.235,-0.507 -1.562,-0.391 -2.963,0.26 -1.401,0.651 -2.345,1.59 -2.11,2.098 C -2.728,0.768 -1.4,0.651 0,0 Z" /></g><g
         transform="translate(340.0684,56.4414)"
         id="g2457"><path
           inkscape:connector-curvature="0"
           id="path2459"
           style="fill:none;stroke:#3da2ff;stroke-width:0.486;stroke-linecap:butt;stroke-linejoin:miter;stroke-miterlimit:10;stroke-dasharray:none;stroke-opacity:1"
           d="m 0,0 c -0.556,-1.196 -1.357,-2.002 -1.791,-1.801 -0.433,0.201 -0.334,1.334 0.222,2.53 0.555,1.196 1.357,2.001 1.791,1.8 C 0.655,2.328 0.556,1.195 0,0 Z" /></g><g
         transform="translate(361.0391,158.2324)"
         id="g2461"><path
           inkscape:connector-curvature="0"
           id="path2463"
           style="fill:#eaab35;fill-opacity:1;fill-rule:nonzero;stroke:none"
           d="m 0,0 v 0 c 2.947,0.951 4.565,4.111 3.615,7.06 l -5.744,19.66 c -0.837,2.595 -3.619,4.02 -6.215,3.183 l -1.275,-0.412 c -2.596,-0.837 -4.021,-3.62 -3.184,-6.215 L -7.06,3.615 C -6.108,0.668 -2.948,-0.95 0,0" /></g><g
         transform="translate(377.4316,134.2715)"
         id="g2465"><path
           inkscape:connector-curvature="0"
           id="path2467"
           style="fill:#eaab35;fill-opacity:1;fill-rule:nonzero;stroke:none"
           d="m 0,0 h -25.381 l -1.768,51.93 c 0,6.04 28.917,6.04 28.917,0 z" /></g><g
         transform="translate(351.1768,128.3789)"
         id="g2469"><path
           inkscape:connector-curvature="0"
           id="path2471"
           style="fill:#eaab35;fill-opacity:1;fill-rule:nonzero;stroke:none"
           d="m 0,0 v 0 l 1.406,22.762 9.591,-1.716 V 10.996 C 10.997,4.923 6.074,0 0,0" /></g><g
         transform="translate(372.833,126.9521)"
         id="g2473"><path
           inkscape:connector-curvature="0"
           id="path2475"
           style="fill:#eaab35;fill-opacity:1;fill-rule:nonzero;stroke:none"
           d="M 0,0 H 8.676 L 4.711,23.459 -11.108,37.862 V 11.107 C -11.108,4.973 -6.135,0 0,0" /></g><g
         transform="translate(380.8809,182.5117)"
         id="g2477"><path
           inkscape:connector-curvature="0"
           id="path2479"
           style="fill:#eaab35;fill-opacity:1;fill-rule:nonzero;stroke:none"
           d="m 0,0 c 0,-4.258 -3.452,-7.71 -7.711,-7.71 -4.258,0 -7.71,3.452 -7.71,7.71 0,4.259 3.452,7.711 7.71,7.711 C -3.452,7.711 0,4.259 0,0" /></g><g
         transform="translate(361.3652,190.6475)"
         id="g2481"><path
           inkscape:connector-curvature="0"
           id="path2483"
           style="fill:#d38e20;fill-opacity:1;fill-rule:nonzero;stroke:none"
           d="m 0,0 v 3.089 c 0,0.446 -0.362,0.808 -0.809,0.808 h -0.08 c -1.947,0 -3.526,-1.578 -3.526,-3.525 V -0.495 C -3.046,-0.255 -1.548,-0.09 0,0" /></g><g
         transform="translate(362.4219,185.9648)"
         id="g2485"><path
           inkscape:connector-curvature="0"
           id="path2487"
           style="fill:#f9b48d;fill-opacity:1;fill-rule:nonzero;stroke:none"
           d="m 0,0 v 0 c -2.159,0 -3.908,1.75 -3.908,3.908 v 13.1 H 3.907 V 3.908 C 3.907,1.75 2.158,0 0,0" /></g><g
         transform="translate(352.6484,193.1572)"
         id="g2489"><path
           inkscape:connector-curvature="0"
           id="path2491"
           style="fill:#f9b48d;fill-opacity:1;fill-rule:nonzero;stroke:none"
           d="m 0,0 13.674,0.025 -0.042,22.88 C 13.624,27.694 9.734,31.568 4.946,31.56 L 0.925,31.553 C -6.084,31.54 -11.756,25.847 -11.743,18.838 l 0.013,-7.15 C -11.719,5.221 -6.467,-0.012 0,0" /></g><g
         transform="translate(340.9053,211.9951)"
         id="g2493"><path
           inkscape:connector-curvature="0"
           id="path2495"
           style="fill:#001056;fill-opacity:1;fill-rule:nonzero;stroke:none"
           d="m 0,0 c -0.013,7.009 5.659,12.701 12.668,12.715 l 4.021,0.007 c 2.523,0.005 4.789,-1.075 6.375,-2.791 0.343,1.447 0.53,2.954 0.53,4.506 0,10.773 -8.735,19.507 -19.508,19.507 -10.774,0 -19.508,-8.734 -19.508,-19.507 0,-9.375 6.614,-17.203 15.43,-19.079 z" /></g><g
         transform="translate(359.0283,224.7373)"
         id="g2497"><path
           inkscape:connector-curvature="0"
           id="path2499"
           style="fill:#001056;fill-opacity:1;fill-rule:nonzero;stroke:none"
           d="m 0,0 c 0,-6.053 -4.907,-10.959 -10.96,-10.959 -6.053,0 -10.959,4.906 -10.959,10.959 0,6.053 4.906,10.96 10.959,10.96 C -4.907,10.96 0,6.053 0,0" /></g><g
         transform="translate(367.2021,204.5898)"
         id="g2501"><path
           inkscape:connector-curvature="0"
           id="path2503"
           style="fill:#001056;fill-opacity:1;fill-rule:nonzero;stroke:none"
           d="M 0,0 C -0.003,1.806 -1.469,3.266 -3.274,3.263 L -4.547,3.261 C -4.546,3.221 -4.541,3.183 -4.541,3.144 -4.538,1.502 -5.363,0.053 -6.622,-0.81 l 0.002,-1.016 c 0.004,-1.806 1.47,-3.266 3.274,-3.263 l 3.356,0.006 z" /></g><g
         transform="translate(368.7715,214.3057)"
         id="g2505"><path
           inkscape:connector-curvature="0"
           id="path2507"
           style="fill:#001056;fill-opacity:1;fill-rule:nonzero;stroke:none"
           d="m 0,0 c -0.014,7.135 -5.808,12.908 -12.942,12.895 l -5.324,-0.009 0.018,-10.083 c 0.006,-3.016 1.053,-5.782 2.788,-7.977 0,0.001 0,0.001 0.001,0.001 0.067,0.22 0.154,0.43 0.252,0.634 0.019,0.04 0.037,0.08 0.057,0.119 0.099,0.196 0.211,0.385 0.336,0.564 0.02,0.03 0.043,0.057 0.064,0.087 0.122,0.167 0.254,0.327 0.396,0.476 0.017,0.019 0.033,0.038 0.05,0.057 0.154,0.156 0.32,0.298 0.493,0.433 0.037,0.029 0.073,0.056 0.11,0.082 0.178,0.13 0.362,0.25 0.556,0.355 0.023,0.012 0.045,0.02 0.067,0.032 0.184,0.095 0.377,0.177 0.574,0.248 0.037,0.013 0.072,0.028 0.11,0.041 0.21,0.069 0.427,0.123 0.65,0.163 0.045,0.009 0.091,0.015 0.137,0.022 0.231,0.035 0.466,0.058 0.708,0.059 0.919,10e-4 1.774,-0.261 2.503,-0.708 1.367,-0.84 2.283,-2.342 2.286,-4.063 v -0.011 c 0,-0.159 -0.008,-0.316 -0.024,-0.473 -0.009,-0.085 -0.024,-0.167 -0.037,-0.25 -0.011,-0.072 -0.018,-0.145 -0.032,-0.216 -0.024,-0.114 -0.054,-0.224 -0.084,-0.334 -0.011,-0.039 -0.019,-0.079 -0.029,-0.117 -0.04,-0.129 -0.086,-0.255 -0.136,-0.379 -0.007,-0.016 -0.012,-0.034 -0.019,-0.05 -0.056,-0.138 -0.12,-0.272 -0.189,-0.403 -10e-4,-0.002 -0.002,-0.005 -0.004,-0.007 -0.211,-0.4 -0.479,-0.765 -0.789,-1.087 l -0.003,-0.003 c 0.7,-0.118 1.416,-0.192 2.15,-0.19 l 1.407,0.002 c 2.164,0.004 3.914,1.762 3.91,3.925 z" /></g><g
         transform="translate(360.4248,229.1738)"
         id="g2509"><path
           inkscape:connector-curvature="0"
           id="path2511"
           style="fill:#001056;fill-opacity:1;fill-rule:nonzero;stroke:none"
           d="m 0,0 c -6.053,0 -10.959,-4.906 -10.959,-10.96 0,-3.439 1.587,-6.506 4.065,-8.515 0.751,1.651 2.41,2.802 4.341,2.806 2.641,0.005 4.784,-2.132 4.789,-4.771 0,-0.085 -0.007,-0.168 -0.011,-0.252 4.985,1.027 8.735,5.442 8.735,10.732 C 10.96,-4.906 6.053,0 0,0" /></g><g
         transform="translate(343.8389,200.8662)"
         id="g2513"><path
           inkscape:connector-curvature="0"
           id="path2515"
           style="fill:#f9b48d;fill-opacity:1;fill-rule:nonzero;stroke:none"
           d="m 0,0 h -0.209 c -3.41,0 -6.175,2.766 -6.175,6.176 H 0 Z" /></g><g
         transform="translate(362.6611,207.7334)"
         id="g2517"><path
           inkscape:connector-curvature="0"
           id="path2519"
           style="fill:#f9b48d;fill-opacity:1;fill-rule:nonzero;stroke:none"
           d="m 0,0 c 0.005,-2.641 -2.131,-4.784 -4.771,-4.789 -2.64,-0.005 -4.785,2.131 -4.79,4.771 -0.004,2.64 2.132,4.785 4.772,4.789 C -2.148,4.776 -0.005,2.64 0,0" /></g><g
         transform="translate(346.0342,207.123)"
         id="g2521"><path
           inkscape:connector-curvature="0"
           id="path2523"
           style="fill:#4f1111;fill-opacity:1;fill-rule:nonzero;stroke:none"
           d="m 0,0 c 0,-0.524 -0.426,-0.95 -0.951,-0.95 -0.525,0 -0.95,0.426 -0.95,0.95 0,0.525 0.425,0.951 0.95,0.951 C -0.426,0.951 0,0.525 0,0" /></g><g
         transform="translate(348.4678,200.1865)"
         id="g2525"><path
           inkscape:connector-curvature="0"
           id="path2527"
           style="fill:none;stroke:#4f1111;stroke-width:0.542;stroke-linecap:round;stroke-linejoin:miter;stroke-miterlimit:10;stroke-dasharray:none;stroke-opacity:1"
           d="M 0,0 C 0.042,-0.807 -0.577,-1.495 -1.384,-1.537" /></g><g
         transform="translate(359.8975,184.1475)"
         id="g2529"><path
           inkscape:connector-curvature="0"
           id="path2531"
           style="fill:#eaab35;fill-opacity:1;fill-rule:nonzero;stroke:none"
           d="m 0,0 h 5.431 c 1.428,0 2.586,1.157 2.586,2.585 v 5.401 c 0,1.25 -1.014,2.263 -2.263,2.263 H 4.418 c -2.468,0 -4.468,-2 -4.468,-4.468 V 0.05 C -0.05,0.022 -0.027,0 0,0" /></g><g
         transform="translate(326.4492,186.2109)"
         id="g2533"><path
           inkscape:connector-curvature="0"
           id="path2535"
           style="fill:#facb53;fill-opacity:1;fill-rule:nonzero;stroke:none"
           d="m 0,0 v 0 c -2.03,-2.762 -1.437,-6.646 1.324,-8.675 l 17.882,-13.927 c 2.432,-1.787 5.852,-1.264 7.639,1.167 l 0.878,1.196 c 1.787,2.43 1.264,5.85 -1.167,7.637 L 8.675,1.325 C 5.913,3.354 2.029,2.762 0,0" /></g><g
         transform="translate(323.2402,208.915)"
         id="g2537"><path
           inkscape:connector-curvature="0"
           id="path2539"
           style="fill:#eaab35;fill-opacity:1;fill-rule:nonzero;stroke:none"
           d="M 0,0 1.379,0.204 C 1.598,0.236 1.806,0.059 1.843,-0.193 l 2.165,-14.67 c 0.044,-0.295 -0.099,-0.576 -0.341,-0.673 l -2.443,-0.977 -1.968,-0.29 -2.241,15.187 c -0.038,0.26 0.087,0.507 0.299,0.592 l 2.313,0.923 C -0.252,-0.052 -0.127,-0.019 0,0" /></g><g
         transform="translate(325.9355,193.3398)"
         id="g2541"><path
           inkscape:connector-curvature="0"
           id="path2543"
           style="fill:#facb53;fill-opacity:1;fill-rule:nonzero;stroke:none"
           d="M 0,0 0.809,0.12 C 1.128,0.167 1.35,0.465 1.302,0.785 l -2.159,14.628 c -0.035,0.234 -0.253,0.397 -0.488,0.362 L -2.462,15.61 C -2.696,15.575 -2.859,15.357 -2.824,15.122 L -0.665,0.494 C -0.618,0.175 -0.32,-0.047 0,0" /></g><g
         transform="translate(325.2812,193.7607)"
         id="g2545"><path
           inkscape:connector-curvature="0"
           id="path2547"
           style="fill:#eaab35;fill-opacity:1;fill-rule:nonzero;stroke:none"
           d="m 0,0 -2.12,14.363 c -0.058,0.394 -0.416,0.642 -0.739,0.513 l -1.818,-0.727 c -0.241,-0.096 -0.384,-0.377 -0.341,-0.671 l 2.121,-14.364 c 0.057,-0.393 0.416,-0.641 0.739,-0.512 l 1.817,0.726 C -0.099,-0.575 0.043,-0.295 0,0" /></g><g
         transform="translate(321.7266,202.8379)"
         id="g2549"><path
           inkscape:connector-curvature="0"
           id="path2551"
           style="fill:#f7f4f5;fill-opacity:1;fill-rule:nonzero;stroke:none"
           d="M 0,0 C 0.209,-0.973 0.533,-1.511 0.723,-1.201 0.912,-0.892 0.896,0.148 0.686,1.121 0.477,2.094 0.153,2.632 -0.036,2.322 -0.226,2.013 -0.209,0.973 0,0" /></g><g
         transform="translate(324.584,207.6553)"
         id="g2553"><path
           inkscape:connector-curvature="0"
           id="path2555"
           style="fill:#f7f4f5;fill-opacity:1;fill-rule:nonzero;stroke:none"
           d="m 0,0 c 0.02,-0.133 -0.072,-0.257 -0.205,-0.276 -0.133,-0.02 -0.257,0.072 -0.276,0.205 -0.02,0.133 0.072,0.256 0.205,0.276 C -0.144,0.225 -0.02,0.133 0,0" /></g><g
         transform="translate(324.6855,206.9609)"
         id="g2557"><path
           inkscape:connector-curvature="0"
           id="path2559"
           style="fill:#f7f4f5;fill-opacity:1;fill-rule:nonzero;stroke:none"
           d="M 0,0 C 0.021,-0.133 -0.071,-0.256 -0.204,-0.275 -0.337,-0.296 -0.461,-0.204 -0.48,-0.071 -0.5,0.062 -0.408,0.186 -0.275,0.205 -0.143,0.225 -0.02,0.133 0,0" /></g><g
         transform="translate(324.793,204.5762)"
         id="g2561"><path
           inkscape:connector-curvature="0"
           id="path2563"
           style="fill:#f7f4f5;fill-opacity:1;fill-rule:nonzero;stroke:none"
           d="m 0,0 v 0 c -0.096,-0.015 -0.184,0.051 -0.197,0.146 l -0.207,1.402 c -0.014,0.095 0.051,0.182 0.146,0.197 0.095,0.014 0.183,-0.052 0.197,-0.146 L 0.146,0.197 C 0.16,0.102 0.094,0.014 0,0" /></g><g
         transform="translate(344.0986,172.3193)"
         id="g2565"><path
           inkscape:connector-curvature="0"
           id="path2567"
           style="fill:#f9b48d;fill-opacity:1;fill-rule:nonzero;stroke:none"
           d="m 0,0 v 0 c -1.456,-1.804 -4.095,-2.095 -5.91,-0.652 l -15.704,12.481 c -1.815,1.465 -2.097,4.122 -0.632,5.937 1.465,1.813 4.123,2.095 5.936,0.63 L -0.657,5.957 C 1.178,4.498 1.474,1.824 0,0" /></g><g
         transform="translate(328.6025,185.5332)"
         id="g2569"><path
           inkscape:connector-curvature="0"
           id="path2571"
           style="fill:#f9b48d;fill-opacity:1;fill-rule:nonzero;stroke:none"
           d="m 0,0 v 0 c -1.024,-0.164 -1.988,0.533 -2.152,1.558 l -1.666,10.361 c -0.164,1.024 0.533,1.988 1.557,2.152 1.024,0.164 1.988,-0.533 2.152,-1.557 L 1.558,2.152 C 1.722,1.128 1.024,0.164 0,0" /></g><g
         transform="translate(322.4727,189.9727)"
         id="g2573"><path
           inkscape:connector-curvature="0"
           id="path2575"
           style="fill:#f9b48d;fill-opacity:1;fill-rule:nonzero;stroke:none"
           d="m 0,0 v 0 c -0.997,-0.288 -2.039,0.286 -2.327,1.282 l -2.922,10.08 c -0.288,0.996 0.286,2.038 1.282,2.326 0.997,0.289 2.038,-0.286 2.326,-1.283 L 1.282,2.326 C 1.57,1.33 0.996,0.288 0,0" /></g><g
         transform="translate(326.875,196.498)"
         id="g2577"><path
           inkscape:connector-curvature="0"
           id="path2579"
           style="fill:#f9b48d;fill-opacity:1;fill-rule:nonzero;stroke:none"
           d="m 0,0 c -2.623,1.909 -6.297,1.33 -8.206,-1.292 -1.909,-2.623 -1.33,-6.297 1.293,-8.206 2.623,-1.909 6.297,-1.331 8.206,1.292 C 3.202,-5.583 2.623,-1.909 0,0" /></g><g
         transform="translate(326.5186,185.0928)"
         id="g2581"><path
           inkscape:connector-curvature="0"
           id="path2583"
           style="fill:#facb53;fill-opacity:1;fill-rule:nonzero;stroke:none"
           d="m 0,0 v 0 c -1.738,-2.365 -1.23,-5.69 1.135,-7.429 l 15.31,-11.925 c 2.082,-1.529 5.011,-1.083 6.541,1 l 0.752,1.023 c 1.531,2.082 1.083,5.011 -0.999,6.541 L 7.428,1.134 C 5.063,2.872 1.737,2.364 0,0" /></g><g
         transform="translate(346.3252,166.1016)"
         id="g2585"><path
           inkscape:connector-curvature="0"
           id="path2587"
           style="fill:#facb53;fill-opacity:1;fill-rule:nonzero;stroke:none"
           d="m 0,0 v 0 c 1.878,-2.867 5.725,-3.668 8.591,-1.79 l 19.297,11.888 c 2.524,1.653 3.23,5.04 1.576,7.564 l -0.813,1.24 c -1.653,2.525 -5.041,3.231 -7.564,1.577 L 1.79,8.591 C -1.077,6.713 -1.878,2.866 0,0" /></g><g
         transform="translate(351.1602,160.4121)"
         id="g2589"><path
           inkscape:connector-curvature="0"
           id="path2591"
           style="fill:#d38e20;fill-opacity:1;fill-rule:nonzero;stroke:none"
           d="m 0,0 -10.313,-14.645 c -1.711,-2.581 -1.007,-6.061 1.574,-7.773 2.581,-1.712 6.061,-1.008 7.773,1.574 l 1.599,2.27 z" /></g><g
         transform="translate(351.3379,155.2178)"
         id="g2593"><path
           inkscape:connector-curvature="0"
           id="path2595"
           style="fill:#dc7a63;fill-opacity:1;fill-rule:nonzero;stroke:none"
           d="m 0,0 c -0.968,-0.156 -1.876,-0.681 -2.493,-1.54 l -10.548,-14.669 c -1.244,-1.701 -0.873,-4.088 0.828,-5.332 1.7,-1.243 4.087,-0.872 5.331,0.828 l 7.243,10.075 z" /></g><g
         transform="translate(342.9395,139.9678)"
         id="g2597"><path
           inkscape:connector-curvature="0"
           id="path2599"
           style="fill:#dc7a63;fill-opacity:1;fill-rule:nonzero;stroke:none"
           d="m 0,0 v 0 c 0.192,-0.918 -0.396,-1.817 -1.312,-2.011 l -9.281,-1.954 c -0.917,-0.193 -1.817,0.395 -2.011,1.313 -0.192,0.917 0.396,1.817 1.313,2.009 l 9.28,1.955 C -1.093,1.505 -0.193,0.917 0,0" /></g><g
         transform="translate(339.1982,134.2412)"
         id="g2601"><path
           inkscape:connector-curvature="0"
           id="path2603"
           style="fill:#dc7a63;fill-opacity:1;fill-rule:nonzero;stroke:none"
           d="m 0,0 v 0 c 0.304,-0.887 -0.169,-1.853 -1.056,-2.155 l -8.971,-3.076 c -0.887,-0.304 -1.853,0.169 -2.156,1.056 -0.303,0.887 0.169,1.852 1.057,2.155 l 8.971,3.077 C -1.269,1.36 -0.304,0.887 0,0" /></g><g
         transform="translate(333.1172,137.9316)"
         id="g2605"><path
           inkscape:connector-curvature="0"
           id="path2607"
           style="fill:#dc7a63;fill-opacity:1;fill-rule:nonzero;stroke:none"
           d="m 0,0 c -1.609,-2.45 -0.928,-5.741 1.523,-7.351 2.451,-1.609 5.743,-0.927 7.351,1.524 1.609,2.45 0.928,5.742 -1.523,7.35 C 4.9,3.133 1.609,2.451 0,0" /></g><g
         transform="translate(351.25,157.7822)"
         id="g2609"><path
           inkscape:connector-curvature="0"
           id="path2611"
           style="fill:#d38e20;fill-opacity:1;fill-rule:nonzero;stroke:none"
           d="m 0,0 -9.169,-13.021 c -1.466,-2.209 -0.863,-5.189 1.347,-6.655 2.21,-1.467 5.19,-0.863 6.656,1.347 l 1.708,2.425 z" /></g><g
         transform="translate(422.4043,171.5986)"
         id="g2697"><path
           inkscape:connector-curvature="0"
           id="path2699"
           style="fill:#3da2ff;fill-opacity:1;fill-rule:nonzero;stroke:none"
           d="M 0,0 V -1.979" /></g><g
         transform="translate(422.4043,168.7666)"
         id="g2701"><path
           inkscape:connector-curvature="0"
           id="path2703"
           style="fill:#3da2ff;fill-opacity:1;fill-rule:nonzero;stroke:none"
           d="M 0,0 C 0.472,0 0.854,0.382 0.854,0.854 V 2.832 C 0.854,3.304 0.472,3.686 0,3.686 -0.471,3.686 -0.853,3.304 -0.853,2.832 V 0.854 C -0.853,0.382 -0.471,0 0,0" /></g><g
         transform="translate(418.1914,167.6338)"
         id="g2705"><path
           inkscape:connector-curvature="0"
           id="path2707"
           style="fill:#3da2ff;fill-opacity:1;fill-rule:nonzero;stroke:none"
           d="M 0,0 H 1.98" /></g><g
         transform="translate(418.1914,166.7812)"
         id="g2709"><path
           inkscape:connector-curvature="0"
           id="path2711"
           style="fill:#3da2ff;fill-opacity:1;fill-rule:nonzero;stroke:none"
           d="m 0,0 h 1.98 c 0.471,0 0.853,0.382 0.853,0.853 0,0.471 -0.382,0.853 -0.853,0.853 H 0 C -0.471,1.706 -0.854,1.324 -0.854,0.853 -0.854,0.382 -0.471,0 0,0" /></g><g
         transform="translate(422.4043,163.5332)"
         id="g2713"><path
           inkscape:connector-curvature="0"
           id="path2715"
           style="fill:#3da2ff;fill-opacity:1;fill-rule:nonzero;stroke:none"
           d="M 0,0 V 1.979" /></g><g
         transform="translate(422.4043,162.6807)"
         id="g2717"><path
           inkscape:connector-curvature="0"
           id="path2719"
           style="fill:#3da2ff;fill-opacity:1;fill-rule:nonzero;stroke:none"
           d="M 0,0 C 0.472,0 0.854,0.382 0.854,0.853 V 2.831 C 0.854,3.303 0.472,3.685 0,3.685 -0.471,3.685 -0.853,3.303 -0.853,2.831 V 0.853 C -0.853,0.382 -0.471,0 0,0" /></g><g
         transform="translate(426.6172,167.498)"
         id="g2721"><path
           inkscape:connector-curvature="0"
           id="path2723"
           style="fill:#3da2ff;fill-opacity:1;fill-rule:nonzero;stroke:none"
           d="M 0,0 H -1.979" /></g><g
         transform="translate(424.6377,166.6455)"
         id="g2725"><path
           inkscape:connector-curvature="0"
           id="path2727"
           style="fill:#3da2ff;fill-opacity:1;fill-rule:nonzero;stroke:none"
           d="m 0,0 h 1.979 c 0.472,0 0.854,0.382 0.854,0.853 0,0.471 -0.382,0.853 -0.854,0.853 H 0 C -0.471,1.706 -0.854,1.324 -0.854,0.853 -0.854,0.382 -0.471,0 0,0" /></g><g
         transform="translate(123.0098,247.5156)"
         id="g2733"><path
           inkscape:connector-curvature="0"
           id="path2735"
           style="fill:#3da2ff;fill-opacity:1;fill-rule:nonzero;stroke:none"
           d="m 0,0 h 3.812 c 0.47,0 0.852,0.382 0.852,0.854 0,0.47 -0.382,0.853 -0.852,0.853 L 0,1.707 C -0.472,1.707 -0.854,1.324 -0.854,0.854 -0.854,0.382 -0.472,0 0,0" /></g><g
         transform="translate(121.7002,254.3154)"
         id="g2737"><path
           inkscape:connector-curvature="0"
           id="path2739"
           style="fill:#3da2ff;fill-opacity:1;fill-rule:nonzero;stroke:none"
           d="M 0,0 C 0,0.471 0.382,0.853 0.853,0.853 H 5.119 C 5.591,0.853 5.973,0.471 5.973,0 5.973,-0.472 5.591,-0.854 5.119,-0.854 H 0.853 C 0.382,-0.854 0,-0.472 0,0 m -8.533,0 c 0,0.471 0.382,0.853 0.853,0.853 h 4.267 c 0.471,0 0.852,-0.382 0.852,-0.853 0,-0.472 -0.381,-0.854 -0.852,-0.854 H -7.68 c -0.471,0 -0.853,0.382 -0.853,0.854 m -6.706,0 c 0,0.471 0.382,0.853 0.852,0.853 h 2.441 c 0.47,0 0.853,-0.382 0.853,-0.853 0,-0.472 -0.383,-0.854 -0.853,-0.854 h -2.441 c -0.47,0 -0.852,0.382 -0.852,0.854" /></g><g
         transform="translate(55.041,182.3867)"
         id="g2757"><path
           inkscape:connector-curvature="0"
           id="path2759"
           style="fill:#3da2ff;fill-opacity:1;fill-rule:nonzero;stroke:none"
           d="M 0,0 C 0.472,0 0.854,0.382 0.854,0.854 V 2.832 C 0.854,3.304 0.472,3.686 0,3.686 -0.471,3.686 -0.853,3.304 -0.853,2.832 V 0.854 C -0.853,0.382 -0.471,0 0,0" /></g><g
         transform="translate(57.2744,180.4014)"
         id="g2761"><path
           inkscape:connector-curvature="0"
           id="path2763"
           style="fill:#3da2ff;fill-opacity:1;fill-rule:nonzero;stroke:none"
           d="m 0,0 h 1.979 c 0.472,0 0.854,0.382 0.854,0.853 0,0.471 -0.382,0.853 -0.854,0.853 H 0 C -0.472,1.706 -0.854,1.324 -0.854,0.853 -0.854,0.382 -0.472,0 0,0" /></g><g
         transform="translate(55.041,176.3008)"
         id="g2765"><path
           inkscape:connector-curvature="0"
           id="path2767"
           style="fill:#3da2ff;fill-opacity:1;fill-rule:nonzero;stroke:none"
           d="M 0,0 C 0.472,0 0.854,0.382 0.854,0.853 V 2.831 C 0.854,3.303 0.472,3.685 0,3.685 -0.471,3.685 -0.853,3.303 -0.853,2.831 V 0.853 C -0.853,0.382 -0.471,0 0,0" /></g><g
         transform="translate(50.8281,180.2646)"
         id="g2769"><path
           inkscape:connector-curvature="0"
           id="path2771"
           style="fill:#3da2ff;fill-opacity:1;fill-rule:nonzero;stroke:none"
           d="m 0,0 h 1.98 c 0.471,0 0.853,0.383 0.853,0.854 0,0.471 -0.382,0.853 -0.853,0.853 L 0,1.707 C -0.472,1.707 -0.854,1.325 -0.854,0.854 -0.854,0.383 -0.472,0 0,0" /></g><g
         transform="translate(191.1318,213.9062)"
         id="g2777"><path
           inkscape:connector-curvature="0"
           id="path2779"
           style="fill:#3da2ff;fill-opacity:1;fill-rule:nonzero;stroke:none"
           d="m 0,0 h 19.505 c 0.472,0 0.853,0.382 0.853,0.854 0,0.471 -0.381,0.853 -0.853,0.853 L 0,1.707 C -0.472,1.707 -0.854,1.325 -0.854,0.854 -0.854,0.382 -0.472,0 0,0" /></g><g
         transform="translate(216.8447,213.9033)"
         id="g2781"><path
           inkscape:connector-curvature="0"
           id="path2783"
           style="fill:#3da2ff;fill-opacity:1;fill-rule:nonzero;stroke:none"
           d="m 0,0 h 3.812 c 0.471,0 0.853,0.382 0.853,0.854 0,0.47 -0.382,0.852 -0.853,0.852 H 0 C -0.471,1.706 -0.853,1.324 -0.853,0.854 -0.853,0.382 -0.471,0 0,0" /></g><g
         transform="translate(215.5352,220.7031)"
         id="g2785"><path
           inkscape:connector-curvature="0"
           id="path2787"
           style="fill:#3da2ff;fill-opacity:1;fill-rule:nonzero;stroke:none"
           d="M 0,0 C 0,0.471 0.382,0.853 0.854,0.853 H 5.119 C 5.591,0.853 5.973,0.471 5.973,0 5.973,-0.472 5.591,-0.854 5.119,-0.854 H 0.854 C 0.382,-0.854 0,-0.472 0,0 m -8.533,0 c 0,0.471 0.382,0.853 0.853,0.853 h 4.267 c 0.471,0 0.853,-0.382 0.853,-0.853 0,-0.472 -0.382,-0.854 -0.853,-0.854 H -7.68 c -0.471,0 -0.853,0.382 -0.853,0.854 m -6.706,0 c 0,0.471 0.382,0.853 0.853,0.853 h 2.44 c 0.471,0 0.853,-0.382 0.853,-0.853 0,-0.472 -0.382,-0.854 -0.853,-0.854 h -2.44 c -0.471,0 -0.853,0.382 -0.853,0.854" /></g><g
         transform="translate(187.4902,231.5088)"
         id="g2789"><path
           inkscape:connector-curvature="0"
           id="path2791"
           style="fill:#3da2ff;fill-opacity:1;fill-rule:nonzero;stroke:none"
           d="M 0,0 C 0.471,0 0.853,0.382 0.853,0.854 V 2.833 C 0.853,3.305 0.471,3.687 0,3.687 -0.472,3.687 -0.854,3.305 -0.854,2.833 V 0.854 C -0.854,0.382 -0.472,0 0,0" /></g><g
         transform="translate(189.7227,229.5234)"
         id="g2793"><path
           inkscape:connector-curvature="0"
           id="path2795"
           style="fill:#3da2ff;fill-opacity:1;fill-rule:nonzero;stroke:none"
           d="M 0,0 H 1.979 C 2.45,0 2.833,0.382 2.833,0.854 2.833,1.325 2.45,1.707 1.979,1.707 H 0 C -0.471,1.707 -0.853,1.325 -0.853,0.854 -0.853,0.382 -0.471,0 0,0" /></g><g
         transform="translate(187.4902,225.4229)"
         id="g2797"><path
           inkscape:connector-curvature="0"
           id="path2799"
           style="fill:#3da2ff;fill-opacity:1;fill-rule:nonzero;stroke:none"
           d="M 0,0 C 0.471,0 0.853,0.382 0.853,0.853 V 2.831 C 0.853,3.303 0.471,3.685 0,3.685 -0.472,3.685 -0.854,3.303 -0.854,2.831 V 0.853 C -0.854,0.382 -0.472,0 0,0" /></g><g
         transform="translate(183.2764,229.3867)"
         id="g2801"><path
           inkscape:connector-curvature="0"
           id="path2803"
           style="fill:#3da2ff;fill-opacity:1;fill-rule:nonzero;stroke:none"
           d="m 0,0 h 1.979 c 0.472,0 0.854,0.383 0.854,0.854 0,0.471 -0.382,0.853 -0.854,0.853 L 0,1.707 C -0.471,1.707 -0.853,1.325 -0.853,0.854 -0.853,0.383 -0.471,0 0,0" /></g><g
         transform="translate(297.9141,228.5107)"
         id="g2813"><path
           inkscape:connector-curvature="0"
           id="path2815"
           style="fill:#3da2ff;fill-opacity:1;fill-rule:nonzero;stroke:none"
           d="m 0,0 c 0,1.664 -1.349,3.014 -3.014,3.014 -1.664,0 -3.012,-1.35 -3.012,-3.014 0,-1.664 1.348,-3.014 3.012,-3.014 C -1.349,-3.014 0,-1.664 0,0" /></g></g></g></svg>